<svg xmlns="http://www.w3.org/2000/svg" width="64" height="64" viewBox="0 0 64 64" fill="none">
  <defs>
    <linearGradient id="badge" x1="14" y1="10" x2="52" y2="56" gradientUnits="userSpaceOnUse">
      <stop offset="0%" stop-color="#FF5353"/>
      <stop offset="100%" stop-color="#D90429"/>
    </linearGradient>
  </defs>
  <circle cx="32" cy="32" r="24" fill="url(#badge)"/>
  <circle cx="32" cy="32" r="23" stroke="#FFFFFF" stroke-opacity="0.18"/>
  <g fill="#FFFFFF">
    <path d="M25.8 22.4C21.9 18.8 17.8 18.2 14.6 18.3C15.2 23.5 18.3 27 23.4 28L25.8 22.4Z"/>
    <path d="M38.2 22.4C42.1 18.8 46.2 18.2 49.4 18.3C48.8 23.5 45.7 27 40.6 28L38.2 22.4Z"/>
    <circle cx="27.6" cy="22.2" r="2.5"/>
    <circle cx="36.4" cy="22.2" r="2.5"/>
    <path d="M21.5 33.7C21.5 27.9 26 24.3 32 24.3C38 24.3 42.5 27.9 42.5 33.7C42.5 41.8 38.2 46.8 32 46.8C25.8 46.8 21.5 41.8 21.5 33.7Z"/>
    <path d="M16.4 33.8C19.6 33.8 22.1 35 24.4 37.2L21.8 40C19.8 38.2 18.2 37.3 16.4 37.3V33.8Z"/>
    <path d="M47.6 33.8C44.4 33.8 41.9 35 39.6 37.2L42.2 40C44.2 38.2 45.8 37.3 47.6 37.3V33.8Z"/>
    <path d="M21.5 40.8L17.2 44.2L19.4 46.9L23.3 43.9L21.5 40.8Z"/>
    <path d="M42.5 40.8L46.8 44.2L44.6 46.9L40.7 43.9L42.5 40.8Z"/>
  </g>
  <path d="M25.4 33.2C27.2 31.6 29.5 30.8 32 30.8C34.5 30.8 36.8 31.6 38.6 33.2" stroke="#FFD8D8" stroke-width="2.6" stroke-linecap="round"/>
</svg>
