<svg xmlns="http://www.w3.org/2000/svg" width="64" height="64" viewBox="0 0 64 64" fill="none">
  <defs>
    <linearGradient id="crab-red" x1="32" y1="6" x2="32" y2="56" gradientUnits="userSpaceOnUse">
      <stop offset="0%" stop-color="#FF3535"/>
      <stop offset="100%" stop-color="#D90000"/>
    </linearGradient>
  </defs>
  <rect width="64" height="64" rx="18" fill="#FFFFFF"/>
  <rect x="1.25" y="1.25" width="61.5" height="61.5" rx="16.75" stroke="#F2D6D6" stroke-width="1.5"/>
  <g stroke="url(#crab-red)" stroke-width="4.5" stroke-linecap="round" stroke-linejoin="round">
    <path d="M23 23C17 21 12.5 15.5 12 9C17.8 10 22.5 13.8 25 19.5" fill="none"/>
    <path d="M41 23C47 21 51.5 15.5 52 9C46.2 10 41.5 13.8 39 19.5" fill="none"/>
    <path d="M21.5 40H11.5" fill="none"/>
    <path d="M21 45.5L13.5 50" fill="none"/>
    <path d="M24.5 50L20 56" fill="none"/>
    <path d="M42.5 40H52.5" fill="none"/>
    <path d="M43 45.5L50.5 50" fill="none"/>
    <path d="M39.5 50L44 56" fill="none"/>
    <path d="M28 20L27 16" fill="none"/>
    <path d="M36 20L37 16" fill="none"/>
  </g>
  <circle cx="27" cy="15.25" r="2.6" fill="url(#crab-red)"/>
  <circle cx="37" cy="15.25" r="2.6" fill="url(#crab-red)"/>
  <path d="M19 31C19 23.5 24.7 19 32 19C39.3 19 45 23.5 45 31C45 40.8 39.3 48.5 32 48.5C24.7 48.5 19 40.8 19 31Z" fill="url(#crab-red)"/>
  <path d="M22.5 30.5C25.2 27.8 28.4 26.5 32 26.5C35.6 26.5 38.8 27.8 41.5 30.5" stroke="#FFFFFF" stroke-width="3.2" stroke-linecap="round"/>
  <path d="M25 34.8C27.2 32.9 29.6 32 32 32C34.4 32 36.8 32.9 39 34.8" stroke="#FFFFFF" stroke-width="2.8" stroke-linecap="round"/>
</svg>
